<?xml version="1.0" standalone="no"?>
<!DOCTYPE svg PUBLIC "-//W3C//DTD SVG 20010904//EN"
 "http://www.w3.org/TR/2001/REC-SVG-20010904/DTD/svg10.dtd">
<svg version="1.0" xmlns="http://www.w3.org/2000/svg"
 width="1723.000000pt" height="1723.000000pt" viewBox="0 0 1723.000000 1723.000000"
 preserveAspectRatio="xMidYMid meet">
<metadata>
Created by potrace 1.11, written by Peter Selinger 2001-2013
</metadata>
<g transform="translate(0.000000,1723.000000) scale(0.100000,-0.100000)"
fill="#000000" stroke="none">
<path d="M4110 14414 c0 -5 -5 -38 -11 -74 -6 -36 -12 -79 -14 -97 -2 -17 -8
-57 -14 -90 -6 -32 -13 -74 -15 -93 -3 -19 -7 -51 -11 -70 -15 -94 -21 -137
-20 -159 0 -21 33 -44 220 -158 262 -160 293 -178 300 -172 2 3 7 25 10 49 3
25 7 56 10 70 5 29 11 66 34 225 6 39 12 79 15 90 2 11 7 45 11 75 4 30 9 63
10 72 3 13 -58 55 -238 164 -133 81 -252 154 -264 162 -13 8 -23 10 -23 6z"/>
<path d="M8044 14332 c-11 -9 -31 -25 -45 -34 -13 -10 -58 -43 -99 -73 -41
-31 -84 -63 -95 -71 -11 -7 -45 -32 -75 -54 -30 -23 -66 -49 -79 -58 -70 -50
-67 -45 -52 -98 7 -27 14 -56 16 -64 2 -8 8 -33 13 -55 6 -22 13 -51 16 -65 2
-14 12 -54 21 -90 9 -36 18 -69 19 -75 19 -89 40 -172 45 -181 4 -7 74 39 181
117 96 71 180 132 185 137 6 4 36 27 68 50 31 24 57 47 57 53 0 6 -12 56 -26
112 -14 56 -27 109 -29 117 -2 8 -18 74 -35 145 -18 72 -34 138 -36 148 -6 34
-15 57 -22 57 -4 -1 -16 -8 -28 -18z"/>
<path d="M4649 13228 c-1 -18 -2 -44 -4 -58 -1 -14 -6 -59 -9 -100 -4 -41 -9
-86 -11 -100 -2 -14 -7 -54 -10 -90 -9 -102 -24 -249 -30 -295 -2 -16 -7 -61
-10 -100 -4 -38 -8 -83 -10 -100 -2 -16 -7 -61 -10 -100 -3 -38 -10 -106 -15
-150 -5 -44 -12 -111 -15 -150 -3 -38 -8 -81 -10 -95 -3 -14 -7 -61 -11 -105
-3 -44 -7 -87 -9 -95 -2 -8 -6 -49 -10 -90 -13 -144 -17 -181 -31 -300 -2 -25
-7 -70 -10 -100 -3 -30 -7 -71 -9 -90 -7 -69 -17 -185 -18 -197 0 -10 -42 -13
-171 -13 -1063 -2 -1413 -6 -1407 -15 4 -5 95 -122 202 -258 107 -137 205
-264 219 -282 14 -18 117 -151 230 -295 113 -143 228 -291 257 -328 28 -37
149 -191 267 -342 219 -279 226 -290 332 -520 21 -46 55 -117 74 -157 l35 -71
56 26 c30 15 84 40 120 56 35 17 119 56 187 88 99 47 126 56 140 47 17 -11
167 -255 167 -272 0 -4 -47 -30 -105 -56 -58 -27 -154 -72 -215 -101 -60 -28
-131 -61 -157 -72 -27 -11 -48 -24 -48 -28 0 -4 16 -41 35 -83 19 -42 35 -78
35 -81 0 -4 -16 0 -35 8 -42 18 -69 11 -62 -16 3 -10 -1 -25 -9 -32 -8 -8 -14
-20 -14 -26 0 -6 -4 -9 -9 -5 -5 3 -35 7 -66 10 -31 3 -65 10 -76 16 -19 10
-145 14 -179 6 -8 -2 -31 -12 -50 -22 -19 -10 -42 -20 -50 -21 -81 -16 -110
-19 -140 -14 -19 3 -45 3 -57 -1 -12 -5 -34 -4 -50 0 -15 4 -59 6 -98 4 -80
-4 -102 -4 -147 -2 -18 1 -44 -1 -58 -3 -14 -3 -44 -9 -67 -13 -45 -7 -51 -13
-31 -33 9 -9 8 -12 -5 -12 -10 0 -38 -21 -62 -47 -25 -26 -45 -44 -45 -39 0 5
-6 3 -14 -3 -12 -10 -19 -8 -35 8 -11 11 -23 32 -27 45 -7 31 -23 36 -101 32
-58 -3 -62 -2 -67 20 -8 30 -23 31 -32 2 -3 -13 -19 -34 -35 -48 -16 -14 -31
-38 -33 -53 -5 -31 -42 -96 -66 -114 -13 -11 -12 -12 5 -13 25 0 61 24 97 64
15 17 28 28 30 26 2 -3 15 -27 28 -53 19 -38 24 -66 26 -131 0 -45 6 -91 11
-102 6 -10 9 -41 7 -67 -2 -42 1 -52 27 -76 16 -16 29 -35 29 -43 0 -21 24
-40 43 -32 8 3 18 1 22 -5 3 -6 21 -11 39 -11 l33 0 -7 -47 c-13 -84 20 -150
97 -194 36 -21 50 -35 46 -45 -3 -8 5 -23 21 -35 14 -11 26 -27 26 -36 0 -23
146 -320 175 -356 132 -164 294 -323 470 -462 28 -22 52 -42 55 -45 3 -3 20
-15 38 -28 94 -66 126 -88 141 -97 9 -5 18 -12 21 -15 15 -16 109 -80 118 -80
5 0 12 -7 16 -15 3 -8 12 -15 20 -15 8 0 16 -3 18 -7 2 -5 28 -27 58 -49 30
-23 69 -54 85 -68 17 -15 49 -41 73 -58 23 -17 42 -35 42 -40 0 -4 6 -8 14 -8
8 0 16 -4 18 -8 2 -5 46 -40 98 -77 102 -74 238 -174 257 -190 26 -22 237
-168 557 -385 92 -63 150 -108 143 -112 -6 -4 -15 -2 -19 5 -4 7 -8 7 -8 2 0
-6 -23 -16 -50 -22 -55 -13 -97 -42 -63 -44 10 0 -18 -10 -62 -23 -44 -12 -86
-25 -92 -29 -18 -11 -16 -27 3 -27 8 0 13 -4 9 -9 -3 -6 -15 -8 -28 -5 -12 2
-47 -3 -77 -12 -30 -9 -59 -17 -65 -18 -5 -1 -21 -8 -34 -15 l-25 -14 27 -14
c34 -17 36 -26 2 -11 -18 8 -35 8 -67 -1 -24 -6 -52 -13 -63 -15 -30 -6 -77
-26 -93 -38 -11 -9 -9 -14 10 -25 23 -13 23 -13 -5 -7 -32 7 -191 -39 -220
-64 -11 -10 -15 -23 -11 -35 3 -11 2 -17 -3 -14 -12 7 -151 -34 -180 -53 -28
-18 -29 -30 -4 -30 43 0 26 -15 -17 -16 -26 -1 -54 -3 -62 -6 -120 -36 -170
-70 -109 -74 43 -3 41 -7 -8 -14 -28 -4 -65 -17 -81 -29 -17 -11 -40 -21 -51
-21 -12 0 -21 -5 -21 -10 0 -6 -3 -9 -7 -8 -18 5 -84 -25 -101 -45 -9 -12 -34
-31 -54 -41 -21 -10 -35 -23 -32 -28 3 -4 10 -5 16 -2 7 4 8 2 4 -4 -4 -7 -16
-12 -27 -12 -30 0 -178 -82 -185 -102 -3 -10 -19 -25 -36 -34 -36 -19 -128
-111 -128 -129 0 -17 -46 -68 -64 -71 -30 -4 -113 -116 -131 -176 -4 -13 -19
-47 -32 -77 -15 -30 -28 -79 -30 -115 -3 -33 -10 -67 -15 -74 -6 -6 -7 -12 -3
-12 4 0 2 -6 -4 -14 -31 -37 -11 -183 34 -253 18 -27 19 -65 3 -81 -7 -7 -13
-16 -14 -20 0 -4 -6 -20 -13 -37 -25 -58 -17 -170 18 -265 5 -14 12 -36 15
-50 6 -27 55 -62 84 -59 9 1 31 1 49 0 28 -1 31 -4 26 -24 -26 -103 39 -223
150 -275 133 -63 182 -79 239 -76 l57 3 -6 -36 c-4 -26 -3 -34 5 -29 9 5 9 0
2 -18 -7 -20 -6 -24 6 -19 10 4 12 0 8 -10 -3 -9 -2 -22 2 -29 5 -7 9 -15 10
-18 6 -32 20 -67 31 -78 7 -7 13 -20 13 -28 0 -8 6 -14 12 -14 7 0 37 -17 66
-37 29 -20 64 -38 78 -39 13 -1 31 -10 40 -18 9 -9 19 -14 24 -11 5 3 11 1 15
-5 3 -5 18 -10 33 -10 15 0 39 -8 52 -17 14 -10 36 -19 50 -20 14 -1 50 -7 80
-13 30 -6 64 -12 75 -14 11 -2 31 -6 45 -10 14 -3 55 -8 92 -9 37 -2 71 -6 75
-10 10 -11 51 -8 58 3 5 8 11 7 20 0 8 -7 23 -9 35 -5 11 3 20 2 20 -2 0 -12
574 -6 595 6 14 7 45 9 45 2 0 -3 14 -6 30 -6 17 0 30 3 30 6 0 3 18 5 40 3
22 -1 40 2 40 7 0 5 19 7 41 4 29 -4 45 -1 53 9 7 9 40 16 94 20 46 3 87 8 92
11 5 3 28 7 50 9 22 2 48 10 57 19 10 8 32 17 48 18 17 2 35 6 40 9 6 4 24 7
42 8 18 1 51 10 75 20 24 10 55 17 71 16 15 -2 27 2 27 7 0 6 5 7 10 4 6 -3
10 -2 10 2 0 5 16 8 36 7 23 -1 37 3 41 13 4 9 14 13 28 9 14 -4 28 0 35 9 7
8 21 15 32 15 10 0 31 8 45 17 14 10 40 16 56 14 21 -2 27 1 22 9 -6 9 -2 9
16 0 19 -11 24 -10 34 4 7 9 25 16 42 16 16 0 38 6 48 14 10 7 35 12 54 10 20
-1 28 -1 19 2 -27 8 -22 24 7 24 16 0 25 -6 25 -15 0 -12 4 -13 19 -6 10 6 21
7 25 4 3 -3 6 1 6 11 0 13 7 17 28 14 15 -2 32 3 39 12 8 10 12 11 13 3 0 -7
6 -10 13 -8 6 2 45 6 86 8 40 2 76 9 80 14 3 5 34 9 69 9 34 -1 62 1 62 5 0 3
34 5 76 5 41 -1 77 1 80 3 6 7 43 11 82 11 17 0 32 4 32 10 0 5 13 10 29 10
17 0 32 4 36 9 3 5 16 8 28 5 14 -2 32 4 45 17 18 16 22 17 22 4 0 -9 9 -15
23 -16 12 0 33 -2 46 -3 22 -3 23 -2 6 11 -25 18 -4 17 31 -2 17 -9 30 -11 32
-5 2 6 7 8 12 5 17 -10 101 -14 94 -4 -4 7 9 8 40 4 28 -5 46 -3 46 2 0 6 -11
9 -25 8 -14 -2 -25 1 -25 7 0 5 19 8 43 6 23 -3 54 -1 69 3 15 4 30 4 33 -1 3
-5 22 -7 43 -5 20 1 42 0 47 -4 6 -3 40 -6 77 -7 37 0 73 -5 80 -10 7 -6 23
-9 36 -8 12 0 22 -3 22 -7 0 -10 29 -7 45 3 6 4 17 3 25 -3 8 -5 25 -9 38 -9
12 0 22 -5 22 -11 0 -5 4 -8 10 -4 5 3 37 -2 72 -10 35 -9 80 -17 100 -19 20
-1 43 -7 50 -13 7 -6 33 -13 57 -16 24 -3 47 -10 50 -15 3 -5 22 -12 42 -15
20 -2 42 -7 47 -11 6 -3 13 2 15 11 4 16 5 16 6 1 1 -17 64 -38 126 -42 35 -3
85 -25 85 -38 0 -5 8 -4 18 1 11 6 24 6 33 0 7 -5 24 -9 37 -9 13 0 20 -4 17
-10 -3 -6 5 -10 19 -10 13 0 37 -5 53 -12 15 -6 47 -12 70 -13 23 -2 63 -13
90 -26 26 -13 53 -22 59 -21 7 1 14 -4 17 -11 3 -8 20 -14 38 -15 19 0 35 -6
37 -12 7 -19 33 -40 43 -34 6 3 15 2 22 -3 7 -5 31 -15 55 -22 23 -6 42 -16
42 -21 0 -5 7 -7 15 -4 9 4 15 0 15 -10 0 -9 8 -16 20 -16 11 0 29 -8 40 -18
11 -9 24 -17 28 -18 9 -1 38 -12 79 -30 17 -8 40 -14 51 -14 11 0 22 -8 24
-18 4 -14 22 -22 66 -31 33 -6 62 -16 64 -21 2 -6 15 -11 31 -12 15 -1 27 -6
27 -9 0 -4 26 -10 58 -14 31 -3 69 -13 84 -21 14 -8 33 -11 42 -8 9 4 16 1 16
-6 0 -7 7 -10 15 -7 8 4 17 2 20 -3 4 -6 17 -10 31 -10 13 0 24 -4 24 -10 0
-5 7 -10 15 -10 8 0 20 -9 27 -19 6 -10 18 -17 25 -14 7 3 19 1 26 -5 6 -5 29
-12 49 -15 20 -2 45 -12 54 -21 9 -10 22 -15 29 -12 8 3 16 -1 18 -9 3 -7 19
-16 35 -20 30 -6 47 -28 36 -46 -3 -5 9 -9 26 -9 17 0 38 -7 46 -15 8 -8 21
-12 29 -9 9 4 15 0 15 -10 0 -10 9 -16 25 -16 14 0 25 -4 25 -10 0 -5 11 -10
25 -10 15 0 25 -6 25 -14 0 -9 9 -13 24 -12 14 2 30 -1 38 -5 10 -7 10 -9 1
-9 -23 0 -13 -17 10 -18 12 0 36 -6 52 -13 17 -6 37 -13 45 -15 8 -2 20 -10
26 -18 7 -10 27 -16 53 -16 26 0 41 -4 41 -13 0 -8 17 -13 48 -14 36 -2 52 -8
69 -28 22 -25 82 -37 67 -13 -5 7 -3 8 7 3 7 -5 25 -10 38 -11 14 -2 27 -8 29
-13 2 -6 30 -16 63 -23 37 -7 59 -17 59 -26 0 -7 4 -11 9 -7 5 3 13 0 16 -6 4
-5 13 -8 20 -5 8 3 19 -2 25 -9 8 -9 21 -13 36 -9 13 3 37 2 52 -4 16 -5 35
-6 42 -2 15 9 42 2 35 -10 -2 -4 12 -6 33 -5 20 1 56 -6 80 -17 24 -10 54 -18
67 -18 13 0 36 -5 52 -11 15 -6 48 -13 73 -15 25 -2 59 -6 75 -8 17 -3 41 -5
55 -5 19 -1 21 -4 11 -10 -9 -6 26 -10 94 -10 59 -1 111 -4 116 -7 5 -3 37 -8
72 -10 34 -3 85 -7 112 -9 28 -2 82 -6 122 -9 40 -2 77 -7 82 -10 20 -12 560
-4 581 9 5 3 10 1 10 -5 0 -7 6 -8 18 -2 9 5 37 10 62 12 25 1 61 4 80 5 20 1
34 7 33 14 -2 6 9 11 25 11 31 0 81 49 85 84 1 12 8 27 15 35 9 10 10 17 3 24
-27 27 -10 35 79 36 87 0 108 6 183 47 28 15 62 19 117 11 14 -1 41 0 60 5 38
8 72 -8 48 -23 -10 -7 -10 -9 2 -9 8 0 28 9 44 19 17 11 33 18 38 15 4 -3 8 0
8 5 0 14 -6 14 -31 1 -10 -6 -19 -7 -19 -3 0 4 11 13 23 19 18 8 26 7 38 -5
12 -14 14 -13 17 7 3 16 10 22 29 22 15 0 23 3 20 6 -3 4 -2 16 4 28 9 19 9
19 -10 -2 -23 -27 -31 -29 -42 -10 -15 23 -10 27 37 34 39 5 44 8 29 17 -10 5
-31 10 -47 9 -32 -1 -38 14 -9 23 12 4 18 12 14 21 -5 14 4 17 47 15 20 -2 22
0 10 8 -12 8 -12 11 3 17 10 4 16 13 13 20 -3 8 1 14 9 14 15 0 33 66 21 77
-3 4 1 17 10 30 26 41 15 58 -36 54 -25 -1 -42 0 -38 4 10 10 -11 47 -23 40
-5 -4 -9 -1 -9 5 0 19 35 6 40 -15 5 -16 15 -20 47 -21 32 -2 40 1 36 12 -3 8
0 14 6 14 6 0 11 9 11 20 0 11 4 20 8 20 4 0 25 24 46 53 21 30 44 54 50 55 6
0 20 3 31 6 11 2 26 5 33 5 7 1 11 5 8 10 -4 5 7 12 24 16 16 4 30 11 30 15 0
17 70 80 112 101 50 26 71 45 63 59 -3 5 -1 10 5 10 6 0 9 4 5 9 -3 5 -1 12 4
16 9 5 -33 55 -46 55 -4 0 -15 8 -26 17 -15 13 -18 14 -12 3 8 -13 7 -13 -8
-1 -9 7 -32 17 -50 21 -21 5 0 7 63 7 52 0 127 3 166 8 51 5 77 4 94 -5 15 -8
81 -15 172 -17 131 -5 148 -3 148 11 0 9 5 16 11 16 8 0 8 4 0 14 -9 11 -6 15
16 21 16 4 23 9 17 12 -9 3 -9 10 0 28 6 14 14 25 19 25 8 0 10 62 1 84 -11
28 -25 17 -20 -14 2 -16 1 -30 -4 -30 -4 0 -8 10 -9 23 0 12 -2 37 -4 55 -2
19 2 37 11 44 11 10 12 14 0 22 -7 6 -13 17 -14 24 -3 32 -7 39 -39 62 -19 14
-35 28 -35 33 0 13 23 8 42 -10 21 -19 36 -10 19 11 -7 8 -10 20 -7 25 6 10
-87 91 -104 91 -5 0 -15 19 -22 43 -14 39 -19 43 -74 62 -56 19 -153 63 -164
76 -12 13 -78 48 -114 59 -58 19 -123 65 -207 149 -42 42 -82 81 -90 87 -8 6
-42 49 -75 95 -53 73 -116 147 -189 223 -30 32 -85 103 -85 111 0 4 -26 59
-57 123 -31 65 -56 120 -55 124 1 3 -5 12 -13 18 -8 7 -15 17 -15 22 0 16
-105 163 -195 273 -45 55 -116 150 -159 210 -43 61 -84 115 -90 120 -6 6 -36
44 -67 86 -31 41 -63 82 -70 90 -8 8 -31 40 -52 71 -21 31 -46 66 -55 77 -9
10 -26 32 -37 47 -11 16 -32 42 -47 60 -16 17 -28 34 -28 36 0 5 -75 90 -145
164 -22 23 -69 75 -105 115 -36 40 -96 103 -133 139 -38 36 -146 143 -240 238
-377 380 -436 438 -516 502 -23 19 -48 40 -54 45 -7 6 -41 30 -77 54 -36 25
-67 47 -70 50 -3 4 -25 22 -50 42 -25 20 -65 55 -89 78 -24 22 -46 41 -50 41
-3 0 -29 22 -57 48 -74 68 -215 197 -244 222 -14 12 -57 52 -95 88 -39 37
-117 110 -175 162 -137 125 -160 150 -223 245 -51 77 -56 81 -116 101 -49 17
-80 37 -140 92 -42 38 -103 94 -135 123 -33 30 -67 61 -76 69 -9 8 -50 44 -91
80 -87 77 -139 123 -240 215 -30 28 -85 77 -123 110 -38 33 -84 74 -101 90
-18 17 -54 49 -81 72 -27 22 -65 55 -84 73 -19 17 -54 48 -78 68 -24 20 -58
51 -76 67 -29 26 -134 121 -230 208 -17 15 -45 40 -61 55 -17 15 -64 56 -104
92 -116 102 -241 215 -317 287 -41 39 -136 123 -209 184 -22 19 -47 41 -55 50
-8 9 -37 34 -64 55 -27 21 -59 48 -71 59 -11 11 -81 70 -155 131 -74 61 -149
124 -166 140 -18 17 -48 42 -67 57 -19 15 -41 33 -49 40 -7 7 -23 20 -36 28
-80 56 -96 83 -232 373 -116 248 -136 285 -153 280 -10 -3 -74 -32 -143 -65
-69 -32 -130 -59 -135 -59 -12 0 -137 76 -263 160 l-79 52 29 13 c16 7 72 33
124 57 52 25 127 60 165 78 179 82 175 80 166 98 -5 9 -18 37 -29 62 -11 25
-44 95 -72 155 -111 235 -106 219 -155 450 -13 60 -58 273 -61 290 -2 11 -17
81 -33 156 -17 74 -33 151 -36 170 -3 19 -8 41 -10 49 -3 8 -14 58 -25 110
-29 136 -61 282 -66 305 -2 11 -7 34 -10 50 -3 17 -21 102 -40 190 -41 184
-41 183 -54 250 -5 28 -18 91 -29 140 -11 50 -29 135 -40 189 -20 94 -27 115
-34 105 -5 -7 -111 -133 -122 -145 -5 -6 -25 -29 -43 -52 -19 -23 -43 -51 -54
-64 -23 -26 -59 -69 -188 -223 -51 -60 -111 -132 -134 -159 -22 -27 -70 -84
-105 -125 -34 -42 -80 -96 -101 -121 -21 -25 -55 -65 -75 -90 -42 -50 -114
-135 -161 -188 l-31 -35 -79 55 c-44 30 -171 117 -284 193 -113 76 -239 162
-280 190 -41 28 -158 107 -260 176 -102 68 -187 126 -190 129 -3 3 -99 69
-215 147 -270 181 -577 390 -590 400 -5 4 -22 16 -37 26 l-28 17 -1 -32z
m2912 -3240 c36 -35 95 -91 132 -125 l66 -61 -51 -26 c-29 -14 -55 -26 -59
-26 -4 0 -53 33 -108 74 -55 41 -125 92 -156 112 l-57 38 79 37 c43 21 80 38
84 38 3 1 34 -27 70 -61z m-313 -70 c20 -20 14 -28 -13 -16 -13 6 -22 15 -19
19 7 12 18 11 32 -3z m7 -112 c61 -37 78 -53 66 -60 -11 -7 -29 -2 -99 30 -29
13 -56 24 -60 24 -5 0 -30 11 -58 24 l-49 24 35 14 c39 16 59 10 165 -56z m50
64 c3 -5 2 -10 -4 -10 -5 0 -13 5 -16 10 -3 6 -2 10 4 10 5 0 13 -4 16 -10z
m1003 -592 c7 -7 12 -16 12 -22 0 -5 -6 -2 -13 9 -9 11 -19 15 -27 10 -9 -5
-11 -4 -6 3 9 15 19 15 34 0z m-2439 -112 c20 -20 30 -40 29 -56 -4 -49 13
-99 41 -123 l29 -24 -91 -42 c-89 -40 -91 -41 -111 -23 -12 10 -55 39 -96 65
-42 25 -87 56 -101 69 -14 13 -41 35 -60 49 l-34 27 120 56 c66 31 142 67 170
80 l50 23 12 -35 c6 -19 25 -49 42 -66z m-298 -1303 c63 -54 128 -110 144
-125 l30 -28 -30 9 c-16 5 -57 18 -90 29 -33 12 -72 23 -86 26 -23 4 -64 19
-164 61 -16 7 -48 18 -69 25 l-40 13 85 43 c46 24 89 43 95 43 6 1 62 -43 125
-96z m-1116 -3 c3 -5 -4 -6 -15 -3 -11 3 -22 9 -25 13 -3 5 4 6 15 3 11 -3 22
-9 25 -13z m140 -30 c-3 -5 -12 -10 -18 -10 -7 0 -6 4 3 10 19 12 23 12 15 0z
m213 -45 c-3 -3 -9 2 -12 12 -6 14 -5 15 5 6 7 -7 10 -15 7 -18z m-223 5 c-3
-5 -14 -10 -23 -9 -14 0 -13 2 3 9 27 11 27 11 20 0z m199 -6 c3 -9 2 -12 -5
-9 -5 4 -17 1 -26 -7 -15 -12 -15 -11 -2 10 16 26 25 28 33 6z m61 6 c3 -5 1
-10 -4 -10 -6 0 -11 5 -11 10 0 6 2 10 4 10 3 0 8 -4 11 -10z m-184 -17 c12
-16 12 -17 -1 -7 -8 6 -22 14 -30 17 -13 5 -12 6 1 6 9 1 23 -7 30 -16z m382
-30 c-7 -2 -19 -2 -25 0 -7 3 -2 5 12 5 14 0 19 -2 13 -5z m37 -18 c7 -9 8
-15 2 -15 -5 0 -12 7 -16 15 -3 8 -4 15 -2 15 2 0 9 -7 16 -15z m-490 -10 c33
-19 21 -19 -21 0 -19 8 -27 14 -19 14 8 0 26 -6 40 -14z m390 5 c-8 -5 -19
-10 -25 -10 -5 0 -3 5 5 10 8 5 20 10 25 10 6 0 3 -5 -5 -10z m280 -50 c8 -5
11 -10 5 -10 -5 0 -17 5 -25 10 -8 5 -10 10 -5 10 6 0 17 -5 25 -10z m-523 -6
c-3 -3 -12 -4 -19 -1 -8 3 -5 6 6 6 11 1 17 -2 13 -5z m470 0 c-3 -3 -12 -4
-19 -1 -8 3 -5 6 6 6 11 1 17 -2 13 -5z m77 -23 c3 -4 -6 -6 -19 -3 -14 2 -25
6 -25 8 0 8 39 4 44 -5z m173 -7 c-9 -9 -57 -12 -62 -4 -2 3 13 7 33 8 20 2
33 0 29 -4z m3 -48 c0 -2 -11 -6 -25 -8 -13 -3 -22 -1 -19 3 5 9 44 13 44 5z
m165 -86 c-3 -5 -12 -10 -18 -10 -7 0 -6 4 3 10 19 12 23 12 15 0z m42 -6 c-3
-3 -12 -4 -19 -1 -8 3 -5 6 6 6 11 1 17 -2 13 -5z m-343 -23 c4 -5 -3 -7 -14
-4 -23 6 -26 13 -6 13 8 0 17 -4 20 -9z m536 -21 c12 -8 9 -10 -13 -10 -16 0
-26 4 -22 10 8 12 16 12 35 0z m190 -94 c0 -2 -9 -6 -20 -9 -11 -3 -18 -1 -14
4 5 9 34 13 34 5z m-50 -2526 c-8 -5 -19 -10 -25 -10 -5 0 -3 5 5 10 8 5 20
10 25 10 6 0 3 -5 -5 -10z m-130 -40 c0 -5 -11 -10 -25 -10 -14 0 -42 -7 -63
-15 -31 -14 -35 -14 -22 -1 25 24 110 44 110 26z m30 0 c0 -5 -2 -10 -4 -10
-3 0 -8 5 -11 10 -3 6 -1 10 4 10 6 0 11 -4 11 -10z m-166 -88 c3 -6 -12 -7
-38 -5 -28 4 -53 0 -74 -11 -17 -9 -42 -16 -56 -16 -13 0 -27 -6 -29 -12 -4
-10 -6 -10 -6 -1 -2 32 185 73 203 45z m-284 -90 c0 -5 -20 -13 -45 -19 -25
-6 -45 -7 -45 -3 0 4 19 12 43 17 23 6 43 11 45 12 1 0 2 -3 2 -7z m69 -9 c3
-2 -9 -3 -27 -1 -18 1 -32 6 -32 10 0 8 49 0 59 -9z m-224 -103 c3 -5 -15 -7
-49 -4 -33 3 -57 1 -61 -6 -3 -6 -11 -7 -18 -3 -16 10 21 21 75 22 26 1 49 -3
53 -9z m-197 -68 c7 -1 10 -7 7 -12 -5 -8 -11 -7 -21 1 -8 6 -14 7 -14 2 0 -5
-13 -9 -30 -8 -31 0 -40 10 -17 18 11 3 38 3 75 -1z m-98 -7 c0 -2 -9 -9 -20
-15 -12 -6 -20 -7 -20 -1 0 5 8 12 18 14 9 3 18 5 20 6 1 0 2 -1 2 -4z m144
-3 c3 -5 -1 -9 -9 -9 -8 0 -12 4 -9 9 3 4 7 8 9 8 2 0 6 -4 9 -8z m-319 -101
c-16 -14 -55 -23 -55 -12 0 5 12 12 28 14 15 2 29 5 32 6 2 0 0 -3 -5 -8z m79
-11 c6 -6 -3 -7 -20 -4 -16 3 -33 10 -39 16 -12 13 45 1 59 -12z m396 4 c0 -2
-7 -4 -15 -4 -8 0 -15 4 -15 10 0 5 7 7 15 4 8 -4 15 -8 15 -10z m-60 -4 c0
-5 -5 -10 -11 -10 -5 0 -7 5 -4 10 3 6 8 10 11 10 2 0 4 -4 4 -10z m-153 -86
c-3 -3 -12 -4 -19 -1 -8 3 -5 6 6 6 11 1 17 -2 13 -5z m-490 -72 c6 -4 -13 -7
-42 -7 -29 0 -51 3 -48 8 5 9 74 9 90 -1z m-108 -17 c-3 -2 -21 -7 -40 -9 -19
-3 -42 -8 -51 -11 -10 -4 -18 -3 -18 2 0 5 6 10 13 11 32 2 80 11 85 16 3 3 8
4 10 1 3 -3 3 -7 1 -10z m87 -77 c3 -3 -22 -8 -55 -10 -60 -3 -73 7 -16 14 40
4 63 3 71 -4z m-348 -67 c9 -5 -4 -10 -37 -13 -29 -3 -60 -13 -71 -23 -11 -10
-20 -13 -20 -8 0 14 58 41 110 52 3 0 11 -3 18 -8z m-55 -138 c-7 -2 -21 -2
-30 0 -10 3 -4 5 12 5 17 0 24 -2 18 -5z m-353 -273 c0 -5 -2 -10 -4 -10 -3 0
-8 5 -11 10 -3 6 -1 10 4 10 6 0 11 -4 11 -10z m8811 -67 c0 -5 2 -16 4 -25 2
-10 -2 -21 -7 -25 -7 -3 -8 -1 -4 5 4 7 2 12 -3 12 -6 0 -11 9 -11 20 0 18 19
30 21 13z m-481 -123 c0 -13 -1 -13 -10 0 -5 8 -10 22 -10 30 0 13 1 13 10 0
5 -8 10 -22 10 -30z m715 -21 c12 -19 16 -67 6 -73 -13 -9 -21 7 -25 49 -2 34
6 46 19 24z m518 -43 c6 -15 -1 -26 -15 -26 -4 0 -8 9 -8 20 0 23 15 27 23 6z
m-232 -168 c4 -52 1 -68 -12 -68 -6 0 -9 7 -6 15 4 8 2 17 -3 20 -19 12 -49
90 -37 97 13 8 56 -40 58 -64z m473 -14 c4 -9 3 -20 0 -23 -4 -3 -9 0 -11 7
-3 6 -11 12 -19 12 -8 0 -14 5 -14 10 0 17 37 11 44 -6z m515 -62 c7 -14 6
-19 -4 -19 -7 0 -11 6 -8 14 4 9 0 11 -13 6 -12 -4 -15 -3 -10 5 10 17 24 15
35 -6z m-1370 -92 c0 -10 -3 -8 -9 5 -12 27 -12 43 0 25 5 -8 9 -22 9 -30z
m1403 22 c-3 -10 -1 -13 6 -8 14 8 84 -96 88 -131 1 -13 -2 -21 -7 -17 -5 3
-9 12 -9 20 0 17 -38 94 -46 94 -3 0 -2 -10 1 -21 5 -15 4 -19 -4 -15 -6 4
-11 13 -11 20 0 7 -8 21 -17 32 -23 25 -26 41 -8 41 7 0 11 -7 7 -15z m-686
-56 c26 -79 6 -99 -28 -26 -15 35 -36 69 -46 77 -9 8 2 5 25 -8 23 -12 45 -31
49 -43z m368 -24 c6 -32 5 -33 -16 -18 -32 23 -48 56 -34 72 15 18 42 -11 50
-54z m156 -4 c0 -17 -10 -6 -25 25 l-16 32 20 -25 c11 -14 21 -28 21 -32z m19
-68 c0 -9 -4 -8 -9 5 -5 11 -9 27 -9 35 0 9 4 8 9 -5 5 -11 9 -27 9 -35z
m-1023 17 c3 -21 -3 -21 -21 -3 -8 7 -11 16 -8 20 11 10 26 1 29 -17z m1124
13 c0 -5 -2 -10 -4 -10 -3 0 -8 5 -11 10 -3 6 -1 10 4 10 6 0 11 -4 11 -10z
m110 -25 c0 -5 -5 -3 -10 5 -5 8 -10 20 -10 25 0 6 5 3 10 -5 5 -8 10 -19 10
-25z m-765 -5 c3 -5 1 -10 -4 -10 -6 0 -11 5 -11 10 0 6 2 10 4 10 3 0 8 -4
11 -10z m260 -43 c49 -49 68 -103 56 -157 -8 -29 -13 -37 -10 -14 0 4 -3 10
-8 13 -28 21 -64 71 -58 81 5 8 10 8 21 -1 9 -7 14 -8 14 -1 0 6 -14 22 -31
36 -17 14 -28 26 -25 26 4 0 0 14 -9 30 -23 44 -1 38 50 -13z m559 7 c5 -14 4
-15 -9 -4 -17 14 -19 20 -6 20 5 0 12 -7 15 -16z m-175 -100 c4 3 7 -4 7 -15
0 -19 -1 -19 -13 -3 -7 10 -13 23 -12 28 0 6 3 5 6 -2 2 -6 8 -10 12 -8z
m-140 -58 c23 -24 38 -86 21 -86 -6 0 -10 3 -10 8 0 4 -10 18 -21 32 -11 14
-17 18 -13 10 4 -8 -4 -4 -17 10 -15 15 -21 28 -14 32 7 5 6 8 -1 8 -6 0 -16
11 -22 24 l-11 25 33 -20 c18 -10 42 -30 55 -43z m155 -2 c3 -8 2 -12 -4 -9
-6 3 -10 10 -10 16 0 14 7 11 14 -7z m-41 -114 c-3 -11 -7 -20 -9 -20 -2 0 -4
9 -4 20 0 11 4 20 9 20 5 0 7 -9 4 -20z m-108 -8 c-3 -7 0 -23 6 -34 7 -13 7
-18 1 -14 -6 4 -17 19 -25 35 -14 28 -13 29 4 28 12 -1 17 -7 14 -15z m95 -37
c1 6 5 -1 11 -13 5 -13 18 -26 29 -29 16 -4 19 -13 16 -64 -1 -32 1 -56 6 -53
4 3 8 0 8 -5 0 -6 -4 -11 -10 -11 -5 0 -10 -8 -10 -17 0 -15 -2 -15 -13 2 -19
29 -39 104 -31 117 4 6 3 8 -4 4 -6 -4 -11 1 -10 11 0 18 -5 42 -17 78 -4 14
-2 12 9 -5 8 -14 16 -20 16 -15z m-346 -80 c11 -8 16 -15 10 -15 -5 0 -18 7
-28 15 -11 8 -16 15 -10 15 5 0 18 -7 28 -15z m2339 -34 c15 -8 27 -21 26 -30
0 -11 -2 -12 -6 -3 -3 7 -18 19 -34 27 -16 9 -29 21 -29 28 0 7 3 8 8 2 4 -6
19 -16 35 -24z m-1643 -53 c0 -13 6 -35 14 -50 12 -23 12 -26 0 -21 -8 3 -14
8 -14 12 0 3 -4 23 -9 44 -5 21 -5 37 0 37 5 0 9 -10 9 -22z m214 -196 c10
-13 22 -37 27 -55 l9 -32 -35 38 c-19 21 -33 42 -30 47 3 5 -6 12 -20 16 -26
6 -35 23 -12 25 10 0 10 2 0 6 -7 2 -13 9 -13 15 0 12 50 -29 74 -60z m-6317
-38 c-3 -3 -12 -4 -19 -1 -8 3 -5 6 6 6 11 1 17 -2 13 -5z m-152 -14 c3 -5 -1
-10 -9 -10 -9 0 -16 5 -16 10 0 6 4 10 9 10 6 0 13 -4 16 -10z m8018 -65 c-3
-9 -8 -14 -10 -11 -3 3 -2 9 2 15 9 16 15 13 8 -4z m-1483 -56 c0 -6 -4 -7
-10 -4 -5 3 -10 11 -10 16 0 6 5 7 10 4 6 -3 10 -11 10 -16z m24 -54 c10 -16
13 -25 6 -18 -7 6 -20 9 -29 6 -12 -4 -13 -2 -3 4 7 6 10 17 6 29 -9 23 -3 18
20 -21z m59 -89 c13 -13 21 -29 17 -36 -8 -12 -19 -2 -39 38 -15 29 -8 28 22
-2z m64 -68 c13 -12 23 -26 23 -31 0 -5 -10 2 -21 17 -29 37 -34 26 -9 -18 12
-19 20 -41 17 -48 -2 -7 -14 7 -25 31 -34 70 -28 90 15 49z m69 -119 l34 -46
-26 5 c-23 4 -24 2 -19 -21 7 -28 -10 -46 -28 -28 -9 9 -8 11 6 6 10 -4 17 -2
17 4 0 6 -5 11 -11 11 -7 0 -9 10 -5 24 3 14 2 27 -3 30 -5 3 -9 25 -9 48 0
24 3 36 5 28 3 -8 21 -36 39 -61z m-41 -29 c3 -5 -1 -10 -9 -10 -9 0 -16 5
-16 10 0 6 4 10 9 10 6 0 13 -4 16 -10z m-47 -74 c-23 -17 -23 -33 2 -46 28
-15 25 -28 -6 -22 -18 3 -22 7 -13 13 11 6 10 9 -2 14 -11 4 -14 14 -11 30 2
15 9 22 18 18 16 -6 18 8 4 25 -5 7 -2 5 8 -4 16 -14 16 -16 0 -28z m177 -5
c17 -35 23 -60 20 -85 -3 -24 -1 -36 8 -37 6 0 -6 -6 -28 -13 -23 -7 -49 -9
-62 -5 -12 5 -31 6 -42 4 -20 -4 -54 21 -58 43 -2 6 2 12 7 12 6 0 10 -7 10
-15 0 -16 42 -31 59 -21 5 4 12 2 16 -4 9 -15 22 -12 22 6 0 9 -11 23 -24 31
-25 16 -31 35 -10 31 8 -2 12 9 11 35 -1 20 3 37 7 37 5 0 9 7 9 15 0 32 31
13 55 -34z m-595 -586 c0 -8 -2 -15 -4 -15 -2 0 -6 7 -10 15 -3 8 -1 15 4 15
6 0 10 -7 10 -15z m-2373 -11 c-3 -3 -12 -4 -19 -1 -8 3 -5 6 6 6 11 1 17 -2
13 -5z m2383 -24 c0 -5 -2 -10 -4 -10 -3 0 -8 5 -11 10 -3 6 -1 10 4 10 6 0
11 -4 11 -10z"/>
<path d="M14186 2987 c3 -10 9 -15 12 -12 3 3 0 11 -7 18 -10 9 -11 8 -5 -6z"/>
<path d="M14974 1508 c3 -7 9 -21 12 -30 4 -10 10 -18 15 -18 13 0 11 34 -3
48 -16 16 -31 15 -24 0z"/>
<path d="M14980 1409 c0 -5 5 -7 10 -4 6 3 10 8 10 11 0 2 -4 4 -10 4 -5 0
-10 -5 -10 -11z"/>
<path d="M2110 11459 c-41 -11 -84 -21 -95 -24 -69 -14 -389 -95 -393 -99 -4
-5 15 -32 136 -196 35 -47 70 -94 78 -105 84 -117 138 -185 146 -185 5 0 84
18 176 41 92 23 176 43 187 45 11 2 61 14 112 28 51 13 94 21 98 18 3 -3 5 0
5 7 0 19 -350 491 -363 490 -7 0 -46 -9 -87 -20z"/>
<path d="M16050 2466 c0 -26 19 -39 40 -26 15 9 7 26 -21 40 -16 9 -19 7 -19
-14z"/>
<path d="M16195 2150 c4 -6 11 -8 16 -5 14 9 11 15 -7 15 -8 0 -12 -5 -9 -10z"/>
<path d="M8906 2031 c9 -10 44 -11 44 -1 0 5 -11 9 -25 8 -13 -1 -22 -4 -19
-7z"/>
<path d="M11975 940 c-3 -5 -1 -10 4 -10 6 0 11 5 11 10 0 6 -2 10 -4 10 -3 0
-8 -4 -11 -10z"/>
<path d="M14770 935 c0 -3 6 -12 12 -19 11 -11 16 -11 34 1 19 12 22 12 27 -2
7 -17 57 -21 57 -4 0 6 -7 9 -15 5 -8 -3 -20 1 -27 8 -15 14 -48 17 -48 4 0
-5 -9 -4 -20 2 -11 6 -20 8 -20 5z"/>
<path d="M14870 929 c0 -5 5 -7 10 -4 6 3 10 8 10 11 0 2 -4 4 -10 4 -5 0 -10
-5 -10 -11z"/>
</g>
</svg>
